<svg width="22" height="32" viewBox="0 0 22 32" fill="none" xmlns="http://www.w3.org/2000/svg">
<path d="M14.5385 21.6731H14.3096L14.2894 21.901L13.688 28.6842L13.688 28.6842L13.6876 28.6905C13.6834 28.7569 13.6537 28.819 13.6047 28.864C13.5558 28.909 13.4914 28.9333 13.4249 28.9319L13.4249 28.9318H13.4196H8.58042V28.9318L8.5751 28.9319C8.50864 28.9333 8.4442 28.909 8.39525 28.864C8.34631 28.819 8.31663 28.7569 8.31244 28.6905L8.31252 28.6905L8.31196 28.6842L7.71056 21.901L7.69035 21.6731H7.46154H5.53147C5.45682 21.6731 5.38523 21.6434 5.33244 21.5906C5.27965 21.5378 5.25 21.4663 5.25 21.3916V14.2731C5.25172 13.6401 5.25499 12.6745 5.61428 11.8674C5.79124 11.4698 6.05152 11.119 6.43599 10.8659C6.81097 10.6192 7.32154 10.4539 8.02434 10.4461L10.8981 11.7283L11 11.7738L11.1019 11.7283L13.9757 10.4461C14.6785 10.4539 15.189 10.6192 15.564 10.8659C15.9485 11.119 16.2088 11.4698 16.3857 11.8674C16.745 12.6745 16.7483 13.6401 16.75 14.2731C16.75 14.2732 16.75 14.2733 16.75 14.2734L16.75 21.3916C16.75 21.4663 16.7203 21.5378 16.6676 21.5906C16.6148 21.6434 16.5432 21.6731 16.4685 21.6731H14.5385ZM12.6716 8.76042C12.1768 9.09099 11.5952 9.26744 11.0002 9.26748C10.2024 9.2668 9.43746 8.94957 8.87332 8.38543C8.30918 7.82129 7.99194 7.05634 7.99126 6.25853C7.9913 5.66353 8.16776 5.0819 8.49832 4.58718C8.82893 4.09239 9.29883 3.70675 9.8486 3.47903C10.3984 3.2513 11.0033 3.19172 11.587 3.30781C12.1706 3.42391 12.7067 3.71046 13.1275 4.13124C13.5483 4.55202 13.8348 5.08813 13.9509 5.67177C14.067 6.2554 14.0074 6.86036 13.7797 7.41014C13.552 7.95991 13.1664 8.42981 12.6716 8.76042Z" fill="#0E7490" stroke="#0D9488" stroke-width="0.5"/>
</svg>
