<svg width="22" height="32" viewBox="0 0 22 32" fill="none" xmlns="http://www.w3.org/2000/svg">
<path d="M14.5385 21.4231H14.0808L14.0404 21.8789L13.439 28.6621L13.4389 28.6621L13.4381 28.6747C13.4379 28.6767 13.437 28.6786 13.4356 28.6799C13.4341 28.6812 13.4322 28.682 13.4302 28.6819L13.4302 28.6818H13.4196H8.58042V28.6817L8.56978 28.6819C8.56779 28.682 8.56587 28.6812 8.56441 28.6799C8.56295 28.6786 8.56206 28.6767 8.56194 28.6747L8.5621 28.6747L8.56098 28.6621L7.95958 21.8789L7.91917 21.4231H7.46154H5.53147C5.52312 21.4231 5.51512 21.4198 5.50922 21.4139C5.50331 21.408 5.5 21.4 5.5 21.3916V14.2734C5.50174 13.6323 5.50827 12.7202 5.84267 11.969C6.00449 11.6055 6.2369 11.2962 6.57343 11.0748C6.89244 10.8648 7.33803 10.712 7.97316 10.697L10.7963 11.9566L11 12.0475L11.2037 11.9566L14.0268 10.697C14.662 10.712 15.1076 10.8648 15.4266 11.0748C15.7631 11.2962 15.9955 11.6055 16.1573 11.969C16.4917 12.7202 16.4983 13.6323 16.5 14.2734V21.3916C16.5 21.4 16.4967 21.408 16.4908 21.4139C16.4849 21.4198 16.4769 21.4231 16.4685 21.4231H14.5385ZM12.5327 8.55255C12.0791 8.85561 11.5459 9.0174 11.0004 9.01748H11.0004C10.2688 9.01685 9.5674 8.72595 9.05009 8.20865C8.53285 7.6914 8.24196 6.99007 8.24126 6.25858C8.24129 5.71301 8.40309 5.1797 8.70619 4.72607C9.00932 4.2724 9.44018 3.9188 9.94428 3.71C10.4484 3.5012 11.0031 3.44656 11.5382 3.55301C12.0733 3.65946 12.5649 3.9222 12.9507 4.30802C13.3365 4.69383 13.5993 5.1854 13.7057 5.72054C13.8122 6.25568 13.7575 6.81037 13.5487 7.31447C13.3399 7.81856 12.9863 8.24942 12.5327 8.55255Z" stroke="#D1D5DB"/>
</svg>
