<svg width="331" height="60" viewBox="0 0 331 60" fill="none" xmlns="http://www.w3.org/2000/svg">
<g filter="url(#filter0_d)">
<path d="M2 29C2 13.536 14.536 1 30 1H301C316.464 1 329 13.536 329 29V29C329 44.464 316.464 57 301 57H30C14.536 57 2 44.464 2 29V29Z" fill="#60A5FA"/>
<path d="M92.79 37.1267C100.337 37.1267 104.465 30.8737 104.465 25.4517C104.465 25.2737 104.465 25.0967 104.453 24.9217C105.256 24.3402 105.949 23.6203 106.5 22.7957C105.751 23.1277 104.957 23.3455 104.143 23.4417C105 22.9287 105.641 22.122 105.947 21.1717C105.142 21.6496 104.261 21.9864 103.342 22.1677C102.723 21.5095 101.905 21.0735 101.014 20.9274C100.122 20.7813 99.2075 20.9331 98.4111 21.3594C97.6147 21.7856 96.9811 22.4626 96.6083 23.2853C96.2355 24.1081 96.1444 25.0309 96.349 25.9107C94.7176 25.8289 93.1216 25.405 91.6646 24.6665C90.2077 23.9279 88.9223 22.8912 87.892 21.6237C87.3673 22.5269 87.2066 23.5961 87.4425 24.6137C87.6785 25.6312 88.2934 26.5206 89.162 27.1007C88.5093 27.0818 87.8706 26.9062 87.3 26.5887V26.6407C87.3004 27.588 87.6284 28.506 88.2284 29.239C88.8284 29.9721 89.6635 30.4751 90.592 30.6627C89.9878 30.8274 89.3539 30.8514 88.739 30.7327C89.0012 31.5482 89.5117 32.2613 90.1991 32.7723C90.8866 33.2833 91.7166 33.5667 92.573 33.5827C91.7221 34.2513 90.7478 34.7455 89.7057 35.0372C88.6637 35.3289 87.5743 35.4123 86.5 35.2827C88.3766 36.487 90.5602 37.1258 92.79 37.1227" fill="white"/>
<path d="M119.504 34H125.833V32.4538H121.349V23.8182H119.504V34ZM130.685 34.1491C132.923 34.1491 134.344 32.5732 134.344 30.2116C134.344 27.8452 132.923 26.2642 130.685 26.2642C128.448 26.2642 127.026 27.8452 127.026 30.2116C127.026 32.5732 128.448 34.1491 130.685 34.1491ZM130.695 32.7074C129.457 32.7074 128.851 31.6037 128.851 30.2067C128.851 28.8097 129.457 27.6911 130.695 27.6911C131.913 27.6911 132.52 28.8097 132.52 30.2067C132.52 31.6037 131.913 32.7074 130.695 32.7074ZM139.193 37.0227C141.256 37.0227 142.778 36.0781 142.778 34.1243V26.3636H141.003V27.6264H140.903C140.63 27.0746 140.058 26.2642 138.711 26.2642C136.946 26.2642 135.559 27.6463 135.559 30.157C135.559 32.6477 136.946 33.8906 138.706 33.8906C140.013 33.8906 140.625 33.1896 140.903 32.6278H140.993V34.0746C140.993 35.1982 140.247 35.6605 139.223 35.6605C138.139 35.6605 137.662 35.1484 137.443 34.701L135.822 35.0938C136.15 36.1626 137.249 37.0227 139.193 37.0227ZM139.208 32.4787C138.02 32.4787 137.393 31.554 137.393 30.147C137.393 28.7599 138.01 27.7408 139.208 27.7408C140.366 27.7408 141.003 28.7003 141.003 30.147C141.003 31.6037 140.356 32.4787 139.208 32.4787ZM148.095 34H149.894V26.3636H148.095V34ZM148.999 25.2798C149.571 25.2798 150.039 24.8423 150.039 24.3054C150.039 23.7635 149.571 23.326 148.999 23.326C148.423 23.326 147.955 23.7635 147.955 24.3054C147.955 24.8423 148.423 25.2798 148.999 25.2798ZM153.545 29.5256C153.545 28.4219 154.211 27.7855 155.161 27.7855C156.09 27.7855 156.647 28.397 156.647 29.4162V34H158.447V29.1378C158.452 27.3082 157.408 26.2642 155.832 26.2642C154.688 26.2642 153.903 26.8111 153.555 27.6612H153.465V26.3636H151.745V34H153.545V29.5256ZM165.325 34H167.204L168.636 28.8395H168.74L170.172 34H172.047L174.209 26.3636H172.37L171.047 31.7031H170.973L169.6 26.3636H167.786L166.414 31.733H166.344L165.002 26.3636H163.167L165.325 34ZM175.466 34H177.265V26.3636H175.466V34ZM176.371 25.2798C176.942 25.2798 177.41 24.8423 177.41 24.3054C177.41 23.7635 176.942 23.326 176.371 23.326C175.794 23.326 175.327 23.7635 175.327 24.3054C175.327 24.8423 175.794 25.2798 176.371 25.2798ZM182.929 26.3636H181.423V24.5341H179.623V26.3636H178.539V27.7557H179.623V32.0014C179.613 33.4382 180.657 34.1442 182.01 34.1044C182.522 34.0895 182.875 33.9901 183.069 33.9254L182.765 32.5185C182.666 32.5433 182.462 32.5881 182.238 32.5881C181.786 32.5881 181.423 32.429 181.423 31.7031V27.7557H182.929V26.3636ZM186.398 29.5256C186.398 28.4219 187.084 27.7855 188.049 27.7855C188.993 27.7855 189.55 28.3871 189.55 29.4162V34H191.35V29.1378C191.35 27.2933 190.306 26.2642 188.72 26.2642C187.547 26.2642 186.801 26.7962 186.448 27.6612H186.358V23.8182H184.599V34H186.398V29.5256ZM196.289 25.3643H199.436V34H201.266V25.3643H204.413V23.8182H196.289V25.3643ZM206.6 34H208.48L209.911 28.8395H210.016L211.448 34H213.322L215.485 26.3636H213.645L212.323 31.7031H212.248L210.876 26.3636H209.061L207.689 31.733H207.619L206.277 26.3636H204.443L206.6 34ZM216.741 34H218.541V26.3636H216.741V34ZM217.646 25.2798C218.218 25.2798 218.685 24.8423 218.685 24.3054C218.685 23.7635 218.218 23.326 217.646 23.326C217.069 23.326 216.602 23.7635 216.602 24.3054C216.602 24.8423 217.069 25.2798 217.646 25.2798ZM224.205 26.3636H222.698V24.5341H220.899V26.3636H219.815V27.7557H220.899V32.0014C220.889 33.4382 221.933 34.1442 223.285 34.1044C223.797 34.0895 224.15 33.9901 224.344 33.9254L224.041 32.5185C223.941 32.5433 223.737 32.5881 223.514 32.5881C223.061 32.5881 222.698 32.429 222.698 31.7031V27.7557H224.205V26.3636ZM229.523 26.3636H228.017V24.5341H226.217V26.3636H225.133V27.7557H226.217V32.0014C226.207 33.4382 227.251 34.1442 228.603 34.1044C229.115 34.0895 229.468 33.9901 229.662 33.9254L229.359 32.5185C229.26 32.5433 229.056 32.5881 228.832 32.5881C228.38 32.5881 228.017 32.429 228.017 31.7031V27.7557H229.523V26.3636ZM234.327 34.1491C236.107 34.1491 237.33 33.2791 237.648 31.9517L235.968 31.7628C235.724 32.4091 235.127 32.7472 234.352 32.7472C233.188 32.7472 232.418 31.9815 232.403 30.674H237.722V30.1222C237.722 27.4425 236.112 26.2642 234.232 26.2642C232.045 26.2642 230.618 27.87 230.618 30.2266C230.618 32.6229 232.025 34.1491 234.327 34.1491ZM232.408 29.4609C232.463 28.4865 233.183 27.6662 234.257 27.6662C235.291 27.6662 235.987 28.4219 235.997 29.4609H232.408ZM239.245 34H241.045V29.5107C241.045 28.5412 241.776 27.8551 242.765 27.8551C243.068 27.8551 243.446 27.9098 243.6 27.9595V26.304C243.436 26.2741 243.153 26.2543 242.954 26.2543C242.079 26.2543 241.348 26.7514 241.07 27.6364H240.99V26.3636H239.245V34Z" fill="white"/>
</g>
<defs>
<filter id="filter0_d" x="0" y="0" width="331" height="60" filterUnits="userSpaceOnUse" color-interpolation-filters="sRGB">
<feFlood flood-opacity="0" result="BackgroundImageFix"/>
<feColorMatrix in="SourceAlpha" type="matrix" values="0 0 0 0 0 0 0 0 0 0 0 0 0 0 0 0 0 0 127 0"/>
<feOffset dy="1"/>
<feGaussianBlur stdDeviation="1"/>
<feColorMatrix type="matrix" values="0 0 0 0 0 0 0 0 0 0 0 0 0 0 0 0 0 0 0.05 0"/>
<feBlend mode="normal" in2="BackgroundImageFix" result="effect1_dropShadow"/>
<feBlend mode="normal" in="SourceGraphic" in2="effect1_dropShadow" result="shape"/>
</filter>
</defs>
</svg>
