<svg width="331" height="60" viewBox="0 0 331 60" fill="none" xmlns="http://www.w3.org/2000/svg">
<g filter="url(#filter0_d)">
<path d="M2 29C2 13.536 14.536 1 30 1H301C316.464 1 329 13.536 329 29C329 44.464 316.464 57 301 57H30C14.536 57 2 44.464 2 29Z" fill="#60A5FA"/>
<path d="M82.29 37.1267C89.837 37.1267 93.965 30.8737 93.965 25.4517C93.965 25.2737 93.965 25.0967 93.953 24.9217C94.7562 24.3402 95.4493 23.6203 96 22.7957C95.2511 23.1277 94.4566 23.3455 93.643 23.4417C94.4996 22.9287 95.1408 22.122 95.447 21.1717C94.6417 21.6496 93.7607 21.9864 92.842 22.1677C92.2234 21.5095 91.405 21.0735 90.5136 20.9274C89.6222 20.7813 88.7075 20.9331 87.9111 21.3594C87.1147 21.7856 86.4811 22.4626 86.1083 23.2853C85.7355 24.1081 85.6444 25.0309 85.849 25.9107C84.2176 25.8289 82.6216 25.405 81.1646 24.6665C79.7077 23.9279 78.4223 22.8912 77.392 21.6237C76.8673 22.5269 76.7066 23.5961 76.9425 24.6137C77.1785 25.6312 77.7934 26.5206 78.662 27.1007C78.0093 27.0818 77.3706 26.9062 76.8 26.5887V26.6407C76.8004 27.588 77.1284 28.506 77.7284 29.239C78.3284 29.9721 79.1635 30.4751 80.092 30.6627C79.4878 30.8274 78.8539 30.8514 78.239 30.7327C78.5012 31.5482 79.0117 32.2613 79.6991 32.7723C80.3866 33.2833 81.2166 33.5667 82.073 33.5827C81.2221 34.2513 80.2478 34.7455 79.2057 35.0372C78.1637 35.3289 77.0743 35.4123 76 35.2827C77.8766 36.487 80.0602 37.1258 82.29 37.1227" fill="white"/>
<path d="M117.719 27.2536C117.406 24.9915 115.666 23.679 113.409 23.679C110.749 23.679 108.746 25.6179 108.746 28.9091C108.746 32.1953 110.724 34.1392 113.409 34.1392C115.83 34.1392 117.436 32.5732 117.719 30.6293L115.86 30.6193C115.626 31.8125 114.652 32.4837 113.434 32.4837C111.783 32.4837 110.6 31.2457 110.6 28.9091C110.6 26.6122 111.773 25.3345 113.439 25.3345C114.677 25.3345 115.646 26.0355 115.86 27.2536H117.719ZM122.66 34.1491C124.897 34.1491 126.319 32.5732 126.319 30.2116C126.319 27.8452 124.897 26.2642 122.66 26.2642C120.423 26.2642 119.001 27.8452 119.001 30.2116C119.001 32.5732 120.423 34.1491 122.66 34.1491ZM122.67 32.7074C121.432 32.7074 120.825 31.6037 120.825 30.2067C120.825 28.8097 121.432 27.6911 122.67 27.6911C123.888 27.6911 124.494 28.8097 124.494 30.2067C124.494 31.6037 123.888 32.7074 122.67 32.7074ZM129.646 29.5256C129.646 28.4219 130.312 27.7855 131.262 27.7855C132.192 27.7855 132.749 28.397 132.749 29.4162V34H134.548V29.1378C134.553 27.3082 133.509 26.2642 131.933 26.2642C130.79 26.2642 130.004 26.8111 129.656 27.6612H129.567V26.3636H127.847V34H129.646V29.5256ZM140.191 26.3636H138.685V24.5341H136.885V26.3636H135.801V27.7557H136.885V32.0014C136.875 33.4382 137.919 34.1442 139.271 34.1044C139.783 34.0895 140.136 33.9901 140.33 33.9254L140.027 32.5185C139.928 32.5433 139.724 32.5881 139.5 32.5881C139.048 32.5881 138.685 32.429 138.685 31.7031V27.7557H140.191V26.3636ZM141.696 34H143.496V26.3636H141.696V34ZM142.601 25.2798C143.173 25.2798 143.64 24.8423 143.64 24.3054C143.64 23.7635 143.173 23.326 142.601 23.326C142.024 23.326 141.557 23.7635 141.557 24.3054C141.557 24.8423 142.024 25.2798 142.601 25.2798ZM147.146 29.5256C147.146 28.4219 147.812 27.7855 148.762 27.7855C149.692 27.7855 150.249 28.397 150.249 29.4162V34H152.048V29.1378C152.053 27.3082 151.009 26.2642 149.433 26.2642C148.29 26.2642 147.504 26.8111 147.156 27.6612H147.067V26.3636H145.347V34H147.146V29.5256ZM158.745 30.7884C158.745 31.9517 157.915 32.5284 157.119 32.5284C156.254 32.5284 155.678 31.9169 155.678 30.9474V26.3636H153.878V31.2259C153.878 33.0604 154.922 34.0994 156.423 34.0994C157.567 34.0994 158.372 33.4979 158.72 32.6428H158.8V34H160.545V26.3636H158.745V30.7884ZM165.776 34.1491C167.556 34.1491 168.779 33.2791 169.097 31.9517L167.417 31.7628C167.173 32.4091 166.577 32.7472 165.801 32.7472C164.638 32.7472 163.867 31.9815 163.852 30.674H169.172V30.1222C169.172 27.4425 167.561 26.2642 165.682 26.2642C163.494 26.2642 162.067 27.87 162.067 30.2266C162.067 32.6229 163.474 34.1491 165.776 34.1491ZM163.857 29.4609C163.912 28.4865 164.633 27.6662 165.706 27.6662C166.741 27.6662 167.437 28.4219 167.447 29.4609H163.857ZM175.743 34H177.622L179.054 28.8395H179.158L180.59 34H182.464L184.627 26.3636H182.788L181.465 31.7031H181.391L180.018 26.3636H178.204L176.832 31.733H176.762L175.42 26.3636H173.585L175.743 34ZM185.884 34H187.683V26.3636H185.884V34ZM186.789 25.2798C187.36 25.2798 187.828 24.8423 187.828 24.3054C187.828 23.7635 187.36 23.326 186.789 23.326C186.212 23.326 185.744 23.7635 185.744 24.3054C185.744 24.8423 186.212 25.2798 186.789 25.2798ZM193.347 26.3636H191.841V24.5341H190.041V26.3636H188.957V27.7557H190.041V32.0014C190.031 33.4382 191.075 34.1442 192.428 34.1044C192.94 34.0895 193.293 33.9901 193.487 33.9254L193.183 32.5185C193.084 32.5433 192.88 32.5881 192.656 32.5881C192.204 32.5881 191.841 32.429 191.841 31.7031V27.7557H193.347V26.3636ZM196.816 29.5256C196.816 28.4219 197.502 27.7855 198.467 27.7855C199.411 27.7855 199.968 28.3871 199.968 29.4162V34H201.768V29.1378C201.768 27.2933 200.724 26.2642 199.138 26.2642C197.965 26.2642 197.219 26.7962 196.866 27.6612H196.776V23.8182H195.017V34H196.816V29.5256ZM206.707 25.3643H209.854V34H211.684V25.3643H214.831V23.8182H206.707V25.3643ZM217.018 34H218.898L220.329 28.8395H220.434L221.866 34H223.74L225.903 26.3636H224.063L222.741 31.7031H222.666L221.294 26.3636H219.479L218.107 31.733H218.037L216.695 26.3636H214.861L217.018 34ZM227.159 34H228.959V26.3636H227.159V34ZM228.064 25.2798C228.636 25.2798 229.103 24.8423 229.103 24.3054C229.103 23.7635 228.636 23.326 228.064 23.326C227.487 23.326 227.02 23.7635 227.02 24.3054C227.02 24.8423 227.487 25.2798 228.064 25.2798ZM234.623 26.3636H233.116V24.5341H231.317V26.3636H230.233V27.7557H231.317V32.0014C231.307 33.4382 232.351 34.1442 233.703 34.1044C234.215 34.0895 234.568 33.9901 234.762 33.9254L234.459 32.5185C234.359 32.5433 234.155 32.5881 233.932 32.5881C233.479 32.5881 233.116 32.429 233.116 31.7031V27.7557H234.623V26.3636ZM239.941 26.3636H238.435V24.5341H236.635V26.3636H235.551V27.7557H236.635V32.0014C236.625 33.4382 237.669 34.1442 239.021 34.1044C239.533 34.0895 239.886 33.9901 240.08 33.9254L239.777 32.5185C239.678 32.5433 239.474 32.5881 239.25 32.5881C238.798 32.5881 238.435 32.429 238.435 31.7031V27.7557H239.941V26.3636ZM244.745 34.1491C246.525 34.1491 247.748 33.2791 248.066 31.9517L246.385 31.7628C246.142 32.4091 245.545 32.7472 244.77 32.7472C243.606 32.7472 242.836 31.9815 242.821 30.674H248.14V30.1222C248.14 27.4425 246.53 26.2642 244.65 26.2642C242.463 26.2642 241.036 27.87 241.036 30.2266C241.036 32.6229 242.443 34.1491 244.745 34.1491ZM242.826 29.4609C242.881 28.4865 243.601 27.6662 244.675 27.6662C245.709 27.6662 246.405 28.4219 246.415 29.4609H242.826ZM249.663 34H251.463V29.5107C251.463 28.5412 252.194 27.8551 253.183 27.8551C253.486 27.8551 253.864 27.9098 254.018 27.9595V26.304C253.854 26.2741 253.571 26.2543 253.372 26.2543C252.497 26.2543 251.766 26.7514 251.488 27.6364H251.408V26.3636H249.663V34Z" fill="white"/>
</g>
<defs>
<filter id="filter0_d" x="0" y="0" width="331" height="60" filterUnits="userSpaceOnUse" color-interpolation-filters="sRGB">
<feFlood flood-opacity="0" result="BackgroundImageFix"/>
<feColorMatrix in="SourceAlpha" type="matrix" values="0 0 0 0 0 0 0 0 0 0 0 0 0 0 0 0 0 0 127 0"/>
<feOffset dy="1"/>
<feGaussianBlur stdDeviation="1"/>
<feColorMatrix type="matrix" values="0 0 0 0 0 0 0 0 0 0 0 0 0 0 0 0 0 0 0.05 0"/>
<feBlend mode="normal" in2="BackgroundImageFix" result="effect1_dropShadow"/>
<feBlend mode="normal" in="SourceGraphic" in2="effect1_dropShadow" result="shape"/>
</filter>
</defs>
</svg>
