<svg width="16" height="30" viewBox="0 0 16 30" fill="none" xmlns="http://www.w3.org/2000/svg">
<path d="M8.28206 0.133331C11.1014 0.133331 13.3867 2.27508 13.3867 4.91627C13.3867 6.47317 12.5929 7.85647 11.3638 8.72999C13.7261 9.09514 15.5401 11.0016 15.6131 13.3212L15.6154 13.4667V20.1333C15.6154 21.0171 14.8578 21.7333 13.9231 21.7333C13.4897 21.7333 13.0943 21.5793 12.7949 21.326L12.7949 28.1333C12.7949 29.1643 11.911 30 10.8205 30C9.76642 30 8.90532 29.2191 8.84909 28.2358L8.84617 28.1333V22C8.84617 21.7056 8.5935 21.4667 8.28206 21.4667C7.99287 21.4667 7.75436 21.6727 7.72176 21.9378L7.71796 22V28.1333C7.71796 29.1643 6.83405 30 5.7436 30C4.6895 30 3.8284 29.2191 3.77216 28.2358L3.76924 28.1333L3.76976 21.3255C3.4703 21.5791 3.07473 21.7333 2.64104 21.7333C1.73974 21.7333 1.00307 21.0673 0.951603 20.2274L0.94873 20.1333V13.4667C0.94873 11.0817 2.7888 9.10275 5.19992 8.72984C3.97121 7.85647 3.17739 6.47317 3.17739 4.91627C3.17739 2.27508 5.46276 0.133331 8.28206 0.133331ZM10.679 9.20203L10.5548 9.20065C9.87037 9.52007 9.09862 9.69973 8.28206 9.69973C7.46551 9.69973 6.69376 9.52007 6.00935 9.20065C3.57143 9.20822 1.58891 11.0443 1.51497 13.3341L1.51283 13.4667V20.1333C1.51283 20.7225 2.01789 21.2 2.64104 21.2C3.23586 21.2 3.72308 20.7649 3.76615 20.2129L3.76924 20.1333V12.6667C3.76924 12.5194 3.89552 12.4 4.05129 12.4C4.18976 12.4 4.30492 12.4943 4.3288 12.6187L4.33335 12.6667V28.1333C4.33335 28.8698 4.96469 29.4667 5.7436 29.4667C6.49136 29.4667 7.10311 28.9166 7.15086 28.221L7.15386 28.1333V22C7.15386 21.4111 7.65905 20.9333 8.28206 20.9333C8.87675 20.9333 9.3641 21.3686 9.40717 21.9204L9.41027 22V28.1333C9.41027 28.8698 10.0416 29.4667 10.8205 29.4667C11.5683 29.4667 12.18 28.9166 12.2278 28.221L12.2308 28.1333V12.6667C12.2308 12.5194 12.3571 12.4 12.5128 12.4C12.6513 12.4 12.7665 12.4943 12.7903 12.6187L12.7949 12.6667V20.1333C12.7949 20.7225 13.2999 21.2 13.9231 21.2C14.5179 21.2 15.0051 20.7649 15.0482 20.2129L15.0513 20.1333V13.4667C15.0513 11.1549 13.1063 9.27225 10.679 9.20203ZM8.28206 0.666665C5.7732 0.666665 3.74149 2.57069 3.74149 4.91627C3.74149 7.26229 5.77312 9.1664 8.28206 9.1664C10.791 9.1664 12.8226 7.26229 12.8226 4.91627C12.8226 2.57069 10.7909 0.666665 8.28206 0.666665Z" fill="black"/>
</svg>
