<svg width="12" height="27" viewBox="0 0 12 27" fill="none" xmlns="http://www.w3.org/2000/svg">
<path d="M12 11.2727V18.3916C12 18.5326 11.944 18.6677 11.8443 18.7674C11.7447 18.8671 11.6095 18.9231 11.4685 18.9231H9.53846L8.93706 25.7063C8.92879 25.837 8.87033 25.9595 8.7739 26.0481C8.67747 26.1367 8.55052 26.1846 8.41958 26.1818H3.58042C3.44948 26.1846 3.32253 26.1367 3.2261 26.0481C3.12966 25.9595 3.0712 25.837 3.06294 25.7063L2.46154 18.9231H0.531469C0.390514 18.9231 0.255333 18.8671 0.155664 18.7674C0.055994 18.6677 0 18.5326 0 18.3916V11.2727C0.00339404 10.0232 0 7.19581 3.07692 7.19581L6 8.5L8.92308 7.19581C12 7.19581 11.9966 10.0232 12 11.2727ZM6 6.51748C6.64452 6.51748 7.27456 6.32636 7.81046 5.96829C8.34636 5.61021 8.76404 5.10127 9.01068 4.50581C9.25733 3.91035 9.32186 3.25513 9.19613 2.62299C9.07039 1.99086 8.76002 1.41021 8.30428 0.954464C7.84853 0.498721 7.26788 0.188357 6.63575 0.0626173C6.00361 -0.063122 5.34839 0.00141186 4.75293 0.248058C4.15748 0.494705 3.64853 0.912386 3.29045 1.44828C2.93238 1.98418 2.74126 2.61422 2.74126 3.25874C2.742 4.12279 3.08557 4.95123 3.69654 5.5622C4.30751 6.17317 5.13595 6.51674 6 6.51748Z" fill="#0E7490"/>
</svg>
